<svg width="134" height="41" viewBox="0 0 134 41" fill="none" xmlns="http://www.w3.org/2000/svg">
<g clip-path="url(#clip0_40_2478)">
<path d="M11.2895 22.428C11.2895 20.2559 9.61418 18.7294 7.55626 18.7294C5.49833 18.7294 3.82298 20.2817 3.82298 22.428C3.82298 24.5486 5.49833 26.1267 7.55626 26.1267C9.61626 26.1246 11.2895 24.6 11.2895 22.428ZM11.3189 28.8927V27.2117C10.3036 28.3759 8.79226 29.0986 6.9824 29.0986C3.22179 29.0986 0.367188 26.2533 0.367188 22.428C0.367188 18.6264 3.3311 15.7316 7.06647 15.7316C8.82384 15.7316 10.3058 16.4563 11.321 17.5928V15.9633H14.697V28.8927H11.3189Z" fill="white"/>
<path d="M31.095 26.0217C29.9137 26.0217 29.5857 25.6078 29.5857 24.5228V18.7828H31.7551V15.9633H29.5857V12.8092H26.1258V15.9633H21.6694V15.1772C21.6694 14.0902 22.1087 13.6764 23.3174 13.6764H24.0763V11.1677H22.4114C19.5568 11.1677 18.2115 12.0469 18.2115 14.7357V15.9613H16.2902V18.7808H18.2115V28.8907H21.6715V18.7808H26.1278V25.1168C26.1278 27.7542 27.1978 28.8927 29.9978 28.8927H31.7824V26.0217H31.095Z" fill="white"/>
<path d="M43.5037 21.2637C43.2577 19.5827 41.801 18.5748 40.1004 18.5748C38.3977 18.5748 36.9978 19.5569 36.6425 21.2637H43.5037ZM36.6131 23.2813C36.8612 25.194 38.3158 26.281 40.1551 26.281C41.6097 26.281 42.7365 25.6335 43.3943 24.6H46.9363C46.1123 27.3403 43.5037 29.0986 40.0732 29.0986C35.9278 29.0986 33.0186 26.3582 33.0186 22.4537C33.0186 18.5491 36.094 15.7296 40.1572 15.7296C44.2478 15.7296 47.2118 18.5749 47.2118 22.4537C47.2118 22.7388 47.1844 23.022 47.1297 23.2813H36.6131Z" fill="white"/>
<path d="M69.2099 22.428C69.2099 20.3331 67.5345 18.7294 65.4766 18.7294C63.4187 18.7294 61.7432 20.2817 61.7432 22.428C61.7432 24.5486 63.4187 26.1267 65.4766 26.1267C67.5345 26.1246 69.2099 24.5228 69.2099 22.428ZM58.338 15.9633H61.7138V17.6443C62.7291 16.4543 64.2384 15.7316 66.0504 15.7316C69.7564 15.7316 72.6657 18.6026 72.6657 22.4023C72.6657 26.2038 69.7017 29.1006 65.9685 29.1006C64.2384 29.1006 62.8112 28.4531 61.8232 27.3681V34.213H58.338V15.9633Z" fill="white"/>
<path d="M84.8345 22.428C84.8345 20.2559 83.1612 18.7294 81.101 18.7294C79.0432 18.7294 77.3679 20.2817 77.3679 22.428C77.3679 24.5486 79.0432 26.1267 81.101 26.1267C83.1612 26.1246 84.8345 24.6 84.8345 22.428ZM84.8641 28.8927V27.2117C83.8488 28.3759 82.337 29.0986 80.527 29.0986C76.7667 29.0986 73.9121 26.2533 73.9121 22.428C73.9121 18.6264 76.8761 15.7316 80.6094 15.7316C82.3666 15.7316 83.8488 16.4563 84.8641 17.5928V15.9633H88.2402V28.8927H84.8641Z" fill="white"/>
<path d="M52.2524 17.2305C52.2524 17.2305 53.1122 15.7316 55.2163 15.7316C56.116 15.7316 56.6983 16.0227 56.6983 16.0227V19.3214C56.6983 19.3214 55.4286 18.5828 54.262 18.7313C53.0953 18.8798 52.3575 19.8896 52.3618 21.24V28.8947H48.8765V15.9653H52.2524V17.2305Z" fill="white"/>
<path d="M104.007 15.9633L95.4833 34.1713H91.8889L95.2354 27.1324L89.5769 15.9633H93.6509L96.9615 23.4259L100.358 15.9633H104.007Z" fill="white"/>
<path d="M131.217 15.6703L122.767 11.0767C120.286 9.72828 117.186 11.4133 117.186 14.112V14.5832C117.186 15.0089 117.427 15.403 117.818 15.6148L119.414 16.482C119.882 16.7375 120.467 16.4187 120.467 15.9098V14.7377C120.467 14.1516 121.14 13.7853 121.678 14.0783L128.997 18.0581C129.536 18.3512 129.536 19.0838 128.997 19.3749L121.678 23.3546C121.14 23.6477 120.467 23.2814 120.467 22.6953V22.0716C120.467 19.3728 117.366 17.6859 114.884 19.0362L106.434 23.6298C103.953 24.9783 103.953 28.3522 106.434 29.7005L114.884 34.2941C117.364 35.6425 120.467 33.9575 120.467 31.2588V30.7875C120.467 30.3618 120.225 29.9698 119.834 29.7559L118.238 28.8867C117.77 28.6313 117.186 28.9501 117.186 29.459V30.6312C117.186 31.2172 116.513 31.5835 115.974 31.2904L108.655 27.3107C108.117 27.0176 108.117 26.285 108.655 25.992L115.974 22.0121C116.513 21.7191 117.186 22.0854 117.186 22.6715V23.2952C117.186 25.994 120.286 27.6809 122.767 26.3306L131.217 21.737C133.698 20.3925 133.698 17.0186 131.217 15.6703Z" fill="white"/>
</g>
<defs>
<clipPath id="clip0_40_2478">
<rect width="133.316" height="40" fill="white" transform="translate(0.367188 0.601074)"/>
</clipPath>
</defs>
</svg>
