<svg width="121" height="41" viewBox="0 0 121 41" fill="none" xmlns="http://www.w3.org/2000/svg">
<g clip-path="url(#clip0_40_2485)">
<path d="M119.515 15.7551C119.515 15.3046 119.19 15.0043 118.656 15.0043L117.607 15.023L117.626 17.3129H118.198V16.5246H118.542L119.038 17.3129H119.705L119.114 16.4308C119.236 16.364 119.338 16.2659 119.409 16.147C119.479 16.0281 119.516 15.8927 119.515 15.7551ZM118.542 16.0554H118.179V15.4735H118.599C118.674 15.4654 118.75 15.4862 118.811 15.5316C118.871 15.577 118.911 15.6436 118.923 15.7175V15.7363C118.922 15.7827 118.91 15.8283 118.89 15.8701C118.869 15.9119 118.84 15.9491 118.804 15.9791C118.768 16.0092 118.726 16.0315 118.681 16.0446C118.636 16.0578 118.588 16.0614 118.542 16.0554ZM33.8978 26.3411C32.9246 26.3411 32.2568 25.5903 32.2568 24.4829V19.4339H36.2638V15.8677H32.2664L32.2282 11.7759H27.8014L27.8395 25.4026C27.8395 28.1617 29.7095 30.0387 32.4572 30.0387C33.9073 30.0387 35.2812 29.8322 36.3688 29.3442V25.8718C35.5964 26.2244 34.748 26.3855 33.8978 26.3411ZM44.4687 15.6424C40.3472 15.6424 37.1797 18.7957 37.1797 22.9813C37.1797 27.1294 40.3472 30.0199 44.7168 30.0199C47.1782 30.0199 49.487 29.1565 50.899 27.3734L47.5026 25.8531C46.8157 26.4725 45.7662 26.7165 44.8313 26.7165C43.3048 26.7165 41.7783 25.9469 41.5684 24.3703H51.7005C51.8527 23.8069 51.9297 23.2264 51.9294 22.6435C51.9294 18.3453 48.7429 15.6424 44.4783 15.6424H44.4687ZM41.5684 21.6112C41.702 19.7342 43.0758 18.8708 44.5832 18.8708C46.2814 18.8708 47.5598 19.8093 47.5598 21.4235V21.6112H41.5684ZM23.594 26.3411C22.6209 26.3411 21.953 25.5903 21.953 24.4829V19.4339H25.96V15.8677H21.9626L21.9244 11.7759H17.4976L17.5357 25.4026C17.5357 28.1617 19.4057 30.0387 22.1534 30.0387C23.6035 30.0387 24.9774 29.8322 26.065 29.3442V25.8718C25.2932 26.2261 24.4444 26.3873 23.594 26.3411ZM8.0429 15.6424C4.24576 15.6424 0.257812 18.1013 0.257812 23.0564C0.257812 27.1857 3.08181 30.0762 6.64998 30.0762C8.69166 30.0762 10.2372 29.2691 11.2485 27.8426L11.3821 29.8322H15.6658V23.2253C15.6658 18.1951 11.8973 15.6424 8.0429 15.6424ZM8.0429 26.266C6.11571 26.266 4.72279 24.8583 4.72279 22.8687C4.72279 20.8791 6.09663 19.4714 8.0429 19.4714C9.83652 19.4714 11.3248 21.0105 11.3248 22.8687C11.3248 24.7269 9.83652 26.266 8.0429 26.266ZM118.446 13.972C117.053 13.9907 116.156 14.8729 116.175 16.1868C116.195 17.5006 117.11 18.364 118.503 18.3453C119.858 18.3265 120.774 17.4443 120.755 16.1117C120.736 14.779 119.82 13.9532 118.446 13.972ZM118.503 17.9699C117.416 17.9886 116.672 17.2754 116.672 16.1868C116.672 15.0981 117.378 14.3661 118.465 14.3473C119.553 14.3286 120.278 15.0418 120.297 16.1492C120.297 17.2191 119.572 17.9511 118.513 17.9699H118.503ZM96.8082 15.8864L93.717 24.7081L90.5877 15.8864H85.7793L91.5418 29.8134H95.8541L101.617 15.8864H96.8082ZM108.276 15.6424C104.154 15.6424 100.987 18.7957 100.987 22.9813C100.987 27.1294 104.154 30.0199 108.524 30.0199C110.985 30.0199 113.294 29.1565 114.706 27.3734L111.31 25.8531C110.623 26.4725 109.573 26.7165 108.638 26.7165C107.112 26.7165 105.585 25.9469 105.376 24.3703H115.508C115.66 23.8069 115.737 23.2264 115.737 22.6435C115.737 18.3453 112.55 15.6424 108.276 15.6424ZM111.367 21.6112H105.376C105.509 19.7342 106.883 18.8708 108.39 18.8708C110.089 18.8708 111.367 19.8093 111.367 21.4235V21.6112ZM82.3638 9.76758C80.7991 9.76758 79.6161 10.7999 79.6161 12.2452C79.6161 13.6904 80.7991 14.7603 82.3638 14.7603C83.9284 14.7603 85.1115 13.7092 85.1115 12.2452C85.1115 10.7811 83.9475 9.76758 82.3638 9.76758ZM62.2714 15.6237C61.3767 15.6095 60.4936 15.8232 59.7078 16.2442C58.9221 16.6652 58.2604 17.2791 57.7873 18.0262L57.6347 15.8864H53.3605V29.8134H57.7873V22.5121C57.8827 20.7665 59.3138 19.4339 60.8785 19.4339C62.6339 19.4339 63.4353 20.729 63.4353 22.3619V29.7947H67.8431V21.6862C67.8431 18.1576 65.6583 15.6237 62.2714 15.6237ZM75.7808 26.3411C74.8077 26.3411 74.1398 25.5903 74.1398 24.4829V19.4339H78.1469V15.8677H74.1398L74.1017 11.7759H69.6748L69.713 25.4026C69.713 28.1617 71.583 30.0387 74.3306 30.0387C75.7808 30.0387 77.1546 29.8322 78.2423 29.3442V25.8718C77.4734 26.2246 76.628 26.3857 75.7808 26.3411ZM80.1313 15.8864V29.8134H84.5963V15.8864C83.9343 16.3179 83.1578 16.5481 82.3638 16.5481C81.5697 16.5481 80.7932 16.3179 80.1313 15.8864Z" fill="white"/>
</g>
<defs>
<clipPath id="clip0_40_2485">
<rect width="120.497" height="40" fill="white" transform="translate(0.257812 0.601074)"/>
</clipPath>
</defs>
</svg>
