<svg width="40" height="41" viewBox="0 0 40 41" fill="none" xmlns="http://www.w3.org/2000/svg">
<path d="M15 28.9344V30.6011C15 31.9272 15.5268 33.1989 16.4645 34.1366C17.4021 35.0743 18.6739 35.6011 20 35.6011C21.3261 35.6011 22.5979 35.0743 23.5355 34.1366C24.4732 33.1989 25 31.9272 25 30.6011V28.9344M35 11.8127C33.9068 9.43483 32.3193 7.31723 30.3433 5.60107M5 11.8127C6.09225 9.43514 7.67858 7.31757 9.65333 5.60107M16.6667 8.93441C16.6667 8.05035 17.0179 7.20251 17.643 6.57738C18.2681 5.95226 19.1159 5.60107 20 5.60107C20.8841 5.60107 21.7319 5.95226 22.357 6.57738C22.9821 7.20251 23.3333 8.05035 23.3333 8.93441C25.2473 9.83945 26.879 11.2483 28.0534 13.0099C29.2278 14.7715 29.9007 16.8195 30 18.9344V23.9344C30.1254 24.9706 30.4924 25.9628 31.0714 26.8313C31.6503 27.6997 32.4251 28.4201 33.3333 28.9344H6.66667C7.5749 28.4201 8.34968 27.6997 8.92865 26.8313C9.50761 25.9628 9.87457 24.9706 10 23.9344V18.9344C10.0993 16.8195 10.7722 14.7715 11.9466 13.0099C13.121 11.2483 14.7527 9.83945 16.6667 8.93441Z" stroke="#00BC89" stroke-width="3" stroke-linecap="round" stroke-linejoin="round"/>
</svg>
