<svg width="40" height="41" viewBox="0 0 40 41" fill="none" xmlns="http://www.w3.org/2000/svg">
<path d="M16.6667 5.93454C14.0595 6.53894 11.6616 7.82987 9.72149 9.67344C7.78142 11.517 6.36992 13.846 5.6334 16.419C4.89688 18.992 4.86216 21.7151 5.53284 24.306C6.20352 26.8969 7.55517 29.2612 9.4476 31.1536C11.34 33.0461 13.7043 34.3977 16.2952 35.0684C18.8861 35.7391 21.6093 35.7043 24.1822 34.9678C26.7552 34.2313 29.0842 32.8198 30.9278 30.8797C32.7714 28.9397 34.0623 26.5417 34.6667 23.9345C34.6667 23.4925 34.4911 23.0686 34.1785 22.756C33.866 22.4435 33.442 22.2679 33 22.2679H26.6667C26.3637 23.4329 25.7583 24.4972 24.9118 25.353C24.0654 26.2089 23.0078 26.826 21.8462 27.1418C20.6846 27.4576 19.4602 27.461 18.2969 27.1516C17.1336 26.8422 16.0727 26.2309 15.2215 25.3798C14.3703 24.5286 13.759 23.4676 13.4496 22.3043C13.1402 21.141 13.1436 19.9166 13.4594 18.755C13.7752 17.5934 14.3923 16.5359 15.2482 15.6894C16.1041 14.8429 17.1683 14.2375 18.3334 13.9345V7.26788C18.3126 7.07042 18.2529 6.87903 18.1577 6.70482C18.0625 6.53061 17.9336 6.37704 17.7786 6.25301C17.6235 6.12899 17.4454 6.03697 17.2546 5.9823C17.0637 5.92763 16.8639 5.9114 16.6667 5.93454Z" stroke="#00BC89" stroke-width="3" stroke-linecap="round" stroke-linejoin="round"/>
<path d="M25 6.43457C27.1162 7.17971 29.0383 8.39007 30.6248 9.9765C32.2112 11.5629 33.4216 13.485 34.1667 15.6012H26.6667C26.1557 15.0028 25.5984 14.4456 25 13.9346V6.43457Z" stroke="#00BC89" stroke-width="3" stroke-linecap="round" stroke-linejoin="round"/>
</svg>
