<svg width="99" height="41" viewBox="0 0 99 41" fill="none" xmlns="http://www.w3.org/2000/svg">
<g clip-path="url(#clip0_40_2480)">
<path d="M80.2459 12.7338C81.5206 12.7338 82.509 11.7495 82.509 10.5127C82.509 9.30127 81.5206 8.31695 80.2459 8.31695C78.9973 8.31695 77.9567 9.30127 77.9567 10.5127C77.9307 11.7495 78.9973 12.7338 80.2459 12.7338Z" fill="white"/>
<path d="M60.7359 14.2733H64.1437V16.2924C65.0021 15.081 66.9011 13.9704 69.1382 13.9704C73.3784 13.9704 76.6041 17.4787 76.6041 21.7946C76.6041 26.0853 73.3784 29.6187 69.1382 29.6187C66.9011 29.6187 65.0281 28.5082 64.1437 27.2967V35.6003H60.7359V14.2733ZM68.5139 16.9739C65.7565 16.9739 63.8575 19.0687 63.8575 21.7946C63.8575 24.4952 65.7565 26.6152 68.5139 26.6152C71.2453 26.6152 73.1443 24.5204 73.1443 21.7946C73.1443 19.094 71.2453 16.9739 68.5139 16.9739Z" fill="white"/>
<path d="M84.4601 14.2733H87.8679V16.3177C88.8043 14.8033 90.573 13.9704 92.5762 13.9704C96.1657 13.9704 98.5073 16.4439 98.5073 20.255V29.3158H95.0994V20.8102C95.0994 18.4378 93.8505 16.9992 91.8738 16.9992C89.6106 16.9992 87.8679 18.7154 87.8679 21.9207V29.3158H84.4601V14.2733Z" fill="white"/>
<path d="M34.7744 13.9705C32.7714 13.9705 31.0025 14.8033 30.066 16.3177V8.31689H26.6582V29.3158H30.066V21.9208C30.066 18.7154 31.8089 16.9991 34.072 16.9991C36.049 16.9991 37.2977 18.4378 37.2977 20.8103V29.3158H40.7055V20.255C40.6795 16.4439 38.3642 13.9705 34.7744 13.9705Z" fill="white"/>
<path d="M81.9107 14.2734H78.503V29.3159H81.9107V14.2734Z" fill="white"/>
<path d="M50.7208 29.6187C46.1425 29.6187 42.6046 26.161 42.6046 21.7946C42.6046 17.4282 46.1425 13.9705 50.7208 13.9705C55.2992 13.9705 58.837 17.4282 58.837 21.7946C58.837 26.161 55.2992 29.6187 50.7208 29.6187ZM50.7208 26.5396C53.4522 26.5396 55.3772 24.4699 55.3772 21.7946C55.3772 19.1193 53.4522 17.0496 50.7208 17.0496C47.9634 17.0496 46.0384 19.1193 46.0384 21.7946C46.0384 24.4699 47.9634 26.5396 50.7208 26.5396Z" fill="white"/>
<path d="M14.2481 12.3403C14.2222 13.346 13.4953 14.7791 12.2752 14.7791C11.5223 14.7791 10.8993 14.1757 10.8993 13.4466V13.4215C10.8733 12.2398 10.3283 11.209 9.47154 10.4798C8.82255 9.95185 8.01781 9.59987 7.13517 9.4993C7.888 8.74504 8.95235 8.29248 10.1205 8.29248C11.6002 8.29248 12.9501 9.12217 13.7289 10.329C14.0924 10.9324 14.2741 11.6615 14.2481 12.3403Z" fill="white"/>
<path d="M9.41976 12.4409C10.0687 13.2454 10.4582 14.7791 9.52363 15.5334C8.92652 16.0111 8.06985 15.9356 7.57662 15.3825C6.77187 14.5025 5.6556 14.05 4.53933 14.0248C3.68267 13.9997 2.82599 14.2511 2.09912 14.7288C2.17701 13.698 2.67024 12.6672 3.57882 11.938C4.74701 11.0078 6.38247 10.7312 7.7843 11.2843C8.43328 11.5106 9.0044 11.9129 9.41976 12.4409Z" fill="white"/>
<path d="M5.78533 15.5083C6.79776 15.7095 8.14766 16.6649 7.93999 17.8214C7.81019 18.5505 7.08332 19.0283 6.33048 18.9025H6.30453C5.11038 18.7265 3.94219 19.0785 3.08553 19.7574C2.43653 20.2602 1.91734 20.9894 1.6837 21.819C1.06067 20.9642 0.77511 19.8831 0.956828 18.7517C1.24238 17.3185 2.30673 16.1118 3.76048 15.6341C4.40946 15.4329 5.13634 15.3826 5.78533 15.5083Z" fill="white"/>
<path d="M5.03249 20.1344C5.94108 19.6567 7.60249 19.5561 8.19957 20.5618C8.58897 21.1904 8.35532 22.02 7.70634 22.3972C6.66795 23.0006 6.01895 23.9811 5.78532 25.0622C5.62956 25.8667 5.70744 26.7216 6.09683 27.501C5.05844 27.2496 4.09793 26.5959 3.52683 25.6154C2.774 24.3331 2.79995 22.7492 3.57874 21.4921C3.94218 20.9138 4.43542 20.4361 5.03249 20.1344Z" fill="white"/>
<path d="M7.52443 24.132C7.91383 23.2017 9.10797 22.0955 10.2242 22.4977C10.9511 22.7492 11.3146 23.5286 11.055 24.2075C10.6655 25.3136 10.8213 26.4702 11.3665 27.4257C11.7819 28.1547 12.4048 28.733 13.2096 29.1101C12.2231 29.5627 11.0809 29.6633 9.99061 29.261C8.56281 28.7581 7.52443 27.5262 7.29079 26.0679C7.21291 25.4143 7.29079 24.7354 7.52443 24.132Z" fill="white"/>
<path d="M12.0935 25.6404C11.756 24.685 11.9378 23.101 13.0799 22.6987C13.8068 22.4474 14.5856 22.7994 14.8453 23.5033C15.2865 24.5845 16.1691 25.389 17.2335 25.7913C18.0123 26.0929 18.9209 26.1432 19.7775 25.9421C19.3363 26.8975 18.5055 27.6769 17.4152 28.0792C15.9874 28.582 14.352 28.2803 13.2357 27.2997C12.7166 26.8221 12.3012 26.2689 12.0935 25.6404Z" fill="white"/>
<path d="M16.6104 23.9561C15.7278 23.4281 14.7932 22.0955 15.4162 21.0899C15.8057 20.4613 16.6364 20.2351 17.3113 20.5871C18.3756 21.1401 19.5698 21.2156 20.6601 20.8636C21.4648 20.5871 22.1917 20.0841 22.7109 19.3802C22.9965 20.3859 22.8926 21.4921 22.2956 22.4727C21.5428 23.7549 20.089 24.5343 18.5834 24.4841C17.8565 24.4841 17.1556 24.3081 16.6104 23.9561Z" fill="white"/>
<path d="M18.9468 19.8577C17.9084 20.0086 16.3249 19.556 16.1172 18.3995C15.9614 17.6955 16.4806 16.9915 17.2335 16.8658H17.2594C18.4536 16.6396 19.4141 15.9356 19.9852 15.0053C20.4265 14.3014 20.6341 13.4717 20.5563 12.6168C21.4389 13.1951 22.1138 14.1254 22.2956 15.2316C22.5552 16.6647 21.9581 18.1733 20.79 19.0784C20.2448 19.4806 19.5958 19.7824 18.9468 19.8577Z" fill="white"/>
<path d="M18.0123 15.282C17.3114 16.0363 15.8057 16.69 14.8712 15.9357C14.2741 15.458 14.1962 14.6283 14.6894 14.0501C15.4422 13.145 15.7278 11.9884 15.5461 10.9073C15.4163 10.1028 15.0269 9.32337 14.4039 8.69482C15.4682 8.59425 16.5845 8.89595 17.4931 9.62507C18.6613 10.5553 19.2064 12.089 18.8949 13.5221C18.7651 14.1758 18.4536 14.8043 18.0123 15.282Z" fill="white"/>
</g>
<defs>
<clipPath id="clip0_40_2480">
<rect width="98.278" height="40" fill="white" transform="translate(0.683594 0.601074)"/>
</clipPath>
</defs>
</svg>
