<svg width="83" height="20" viewBox="0 0 83 20" fill="none" xmlns="http://www.w3.org/2000/svg">
<path d="M11.2294 0.0349646C13.5371 0.0349646 15.4019 0.769231 16.8238 2.23776C18.2457 3.68298 18.9567 5.71096 18.9567 8.32168V19.6853H14.0616V8.98601C14.0616 7.44755 13.6769 6.2704 12.9077 5.45455C12.1385 4.61539 11.0895 4.1958 9.76085 4.1958C8.40887 4.1958 7.33661 4.61539 6.54407 5.45455C5.77484 6.2704 5.39022 7.44755 5.39022 8.98601V19.6853H0.495117V0.314685H5.39022V2.72727C6.0429 1.88811 6.87041 1.23543 7.87274 0.769231C8.89838 0.27972 10.0173 0.0349646 11.2294 0.0349646Z" fill="#1A1E29"/>
<path d="M41.6186 9.58042C41.6186 10.2797 41.572 10.9091 41.4788 11.4685H27.3179C27.4345 12.8671 27.924 13.9627 28.7865 14.7552C29.6489 15.5478 30.7096 15.9441 31.9683 15.9441C33.7865 15.9441 35.0802 15.1632 35.8494 13.6014H41.1291C40.5697 15.4662 39.4974 17.0047 37.9123 18.2168C36.3273 19.4056 34.3809 20 32.0732 20C30.2084 20 28.5301 19.5921 27.0382 18.7762C25.5697 17.9371 24.4158 16.7599 23.5767 15.2448C22.7608 13.7296 22.3529 11.9814 22.3529 10C22.3529 7.99534 22.7608 6.23543 23.5767 4.72028C24.3925 3.20513 25.5347 2.03963 27.0033 1.22378C28.4718 0.407926 30.1618 0 32.0732 0C33.9147 0 35.558 0.39627 37.0033 1.18881C38.4718 1.98135 39.6023 3.11189 40.3949 4.58042C41.2107 6.02564 41.6186 7.69231 41.6186 9.58042ZM36.5487 8.18182C36.5254 6.92308 36.0709 5.92075 35.1851 5.17483C34.2993 4.40559 33.2154 4.02098 31.9333 4.02098C30.7212 4.02098 29.6956 4.39394 28.8564 5.13986C28.0406 5.86247 27.5394 6.87646 27.3529 8.18182H36.5487Z" fill="#1A1E29"/>
<path d="M55.8909 19.6853L51.9049 13.6713L48.3735 19.6853H43.1287L49.4574 9.96504L43.0588 0.314685H48.5832L52.5343 6.29371L56.1007 0.314685H61.3455L54.9818 9.96504L61.4154 19.6853H55.8909Z" fill="#1A1E29"/>
<path d="M62.8154 9.93007C62.8154 7.97203 63.2 6.23543 63.9692 4.72028C64.7618 3.20513 65.8224 2.03963 67.151 1.22378C68.503 0.407926 70.0065 0 71.6615 0C73.1067 0 74.3655 0.291375 75.4378 0.874125C76.5333 1.45688 77.4074 2.19114 78.0601 3.07692V0.314685H82.9902V19.6853H78.0601V16.8531C77.4308 17.7622 76.5566 18.5198 75.4378 19.1259C74.3422 19.7086 73.0718 20 71.6266 20C69.9949 20 68.503 19.5804 67.151 18.7413C65.8224 17.9021 64.7618 16.7249 63.9692 15.2098C63.2 13.6713 62.8154 11.9114 62.8154 9.93007ZM78.0601 10C78.0601 8.81119 77.827 7.7972 77.3608 6.95804C76.8946 6.09557 76.2653 5.44289 75.4727 5C74.6802 4.5338 73.8294 4.3007 72.9203 4.3007C72.0112 4.3007 71.172 4.52214 70.4028 4.96503C69.6336 5.40793 69.0042 6.06061 68.5147 6.92308C68.0485 7.76224 67.8154 8.76457 67.8154 9.93007C67.8154 11.0956 68.0485 12.1212 68.5147 13.007C69.0042 13.8695 69.6336 14.5338 70.4028 15C71.1953 15.4662 72.0345 15.6993 72.9203 15.6993C73.8294 15.6993 74.6802 15.4779 75.4727 15.035C76.2653 14.5688 76.8946 13.9161 77.3608 13.0769C77.827 12.2145 78.0601 11.1888 78.0601 10Z" fill="#1A1E29"/>
</svg>
