<svg width="83" height="22" viewBox="0 0 83 22" fill="none" xmlns="http://www.w3.org/2000/svg">
<path d="M10.7343 1.03496C13.042 1.03496 14.9068 1.76923 16.3287 3.23776C17.7506 4.68298 18.4615 6.71096 18.4615 9.32168V20.6853H13.5664V9.98601C13.5664 8.44755 13.1818 7.2704 12.4126 6.45455C11.6434 5.61539 10.5944 5.1958 9.26573 5.1958C7.91375 5.1958 6.84149 5.61539 6.04895 6.45455C5.27972 7.2704 4.8951 8.44755 4.8951 9.98601V20.6853H0V1.31469H4.8951V3.72727C5.54779 2.88811 6.37529 2.23543 7.37762 1.76923C8.40326 1.27972 9.52214 1.03496 10.7343 1.03496Z" fill="white"/>
<path d="M41.1235 10.5804C41.1235 11.2797 41.0769 11.9091 40.9837 12.4685H26.8228C26.9394 13.8671 27.4289 14.9627 28.2914 15.7552C29.1538 16.5478 30.2144 16.9441 31.4732 16.9441C33.2914 16.9441 34.5851 16.1632 35.3543 14.6014H40.634C40.0746 16.4662 39.0023 18.0047 37.4172 19.2168C35.8321 20.4056 33.8858 21 31.5781 21C29.7133 21 28.0349 20.5921 26.5431 19.7762C25.0746 18.9371 23.9207 17.7599 23.0816 16.2448C22.2657 14.7296 21.8578 12.9814 21.8578 11C21.8578 8.99534 22.2657 7.23543 23.0816 5.72028C23.8974 4.20513 25.0396 3.03963 26.5081 2.22378C27.9767 1.40793 29.6666 1 31.5781 1C33.4196 1 35.0629 1.39627 36.5081 2.18881C37.9767 2.98135 39.1072 4.11189 39.8997 5.58042C40.7156 7.02564 41.1235 8.69231 41.1235 10.5804ZM36.0536 9.18182C36.0303 7.92308 35.5757 6.92075 34.69 6.17483C33.8042 5.40559 32.7203 5.02098 31.4382 5.02098C30.2261 5.02098 29.2004 5.39394 28.3613 6.13986C27.5454 6.86247 27.0443 7.87646 26.8578 9.18182H36.0536Z" fill="white"/>
<path d="M55.3958 20.6853L51.4098 14.6713L47.8783 20.6853H42.6336L48.9622 10.965L42.5636 1.31469H48.0881L52.0392 7.29371L55.6056 1.31469H60.8504L54.4867 10.965L60.9203 20.6853H55.3958Z" fill="white"/>
<path d="M62.3203 10.9301C62.3203 8.97203 62.7049 7.23543 63.4741 5.72028C64.2666 4.20513 65.3272 3.03963 66.6559 2.22378C68.0079 1.40793 69.5114 1 71.1664 1C72.6116 1 73.8704 1.29138 74.9426 1.87413C76.0382 2.45688 76.9123 3.19114 77.565 4.07692V1.31469H82.4951V20.6853H77.565V17.8531C76.9356 18.7622 76.0615 19.5198 74.9426 20.1259C73.8471 20.7086 72.5767 21 71.1314 21C69.4997 21 68.0079 20.5804 66.6559 19.7413C65.3272 18.9021 64.2666 17.7249 63.4741 16.2098C62.7049 14.6713 62.3203 12.9114 62.3203 10.9301ZM77.565 11C77.565 9.81119 77.3319 8.7972 76.8657 7.95804C76.3995 7.09557 75.7701 6.44289 74.9776 6C74.1851 5.5338 73.3342 5.3007 72.4252 5.3007C71.5161 5.3007 70.6769 5.52214 69.9077 5.96503C69.1384 6.40793 68.5091 7.06061 68.0196 7.92308C67.5534 8.76224 67.3203 9.76457 67.3203 10.9301C67.3203 12.0956 67.5534 13.1212 68.0196 14.007C68.5091 14.8695 69.1384 15.5338 69.9077 16C70.7002 16.4662 71.5394 16.6993 72.4252 16.6993C73.3342 16.6993 74.1851 16.4779 74.9776 16.035C75.7701 15.5688 76.3995 14.9161 76.8657 14.0769C77.3319 13.2145 77.565 12.1888 77.565 11Z" fill="white"/>
</svg>
