<svg width="40" height="41" viewBox="0 0 40 41" fill="none" xmlns="http://www.w3.org/2000/svg">
<path d="M24.9998 18.9342V18.9509M8.62152 14.5645C7.89052 14.0027 7.32909 13.2496 6.99929 12.3887C6.66949 11.5277 6.58415 10.5924 6.75272 9.68594C6.92128 8.77952 7.33718 7.93735 7.95445 7.25252C8.57171 6.56769 9.36631 6.06686 10.2504 5.80539C11.1345 5.54392 12.0737 5.53198 12.9642 5.77091C13.8546 6.00983 14.6617 6.49031 15.2962 7.15924C15.9306 7.82816 16.3678 8.65949 16.5593 9.56133C16.7509 10.4632 16.6893 11.4004 16.3815 12.2695M26.6665 7.26758V13.6059C28.7292 14.7994 30.2996 16.6883 31.0965 18.9342H33.3315C33.7736 18.9342 34.1975 19.1098 34.51 19.4224C34.8226 19.735 34.9982 20.1589 34.9982 20.6009V23.9342C34.9982 24.3763 34.8226 24.8002 34.51 25.1128C34.1975 25.4253 33.7736 25.6009 33.3315 25.6009H31.0949C30.5349 27.1842 29.5832 28.6009 28.3315 29.7226V33.1009C28.3315 33.764 28.0681 34.3998 27.5993 34.8687C27.1305 35.3375 26.4946 35.6009 25.8315 35.6009C25.1685 35.6009 24.5326 35.3375 24.0638 34.8687C23.5949 34.3998 23.3315 33.764 23.3315 33.1009V32.1292C22.7808 32.2215 22.2233 32.2678 21.6649 32.2676H14.9982C14.4398 32.2678 13.8823 32.2215 13.3315 32.1292V33.1009C13.3315 33.764 13.0681 34.3998 12.5993 34.8687C12.1305 35.3375 11.4946 35.6009 10.8315 35.6009C10.1685 35.6009 9.5326 35.3375 9.06376 34.8687C8.59492 34.3998 8.33153 33.764 8.33153 33.1009V29.7226C6.82146 28.3725 5.75699 26.5957 5.279 24.6274C4.80101 22.659 4.93205 20.5919 5.65476 18.6996C6.37748 16.8074 7.6578 15.1792 9.32625 14.0306C10.9947 12.8821 12.9726 12.2673 14.9982 12.2676H19.1649L26.6649 7.26758H26.6665Z" stroke="#00BC89" stroke-width="3" stroke-linecap="round" stroke-linejoin="round"/>
</svg>
