<svg width="94" height="41" viewBox="0 0 94 41" fill="none" xmlns="http://www.w3.org/2000/svg">
<g clip-path="url(#clip0_40_2483)">
<path d="M10.7831 25.083C10.7831 25.677 10.6543 26.2289 10.3966 26.7393C10.1389 27.2424 9.77385 27.6755 9.31564 28.0252C8.85036 28.3815 8.29925 28.6541 7.66191 28.8496C7.02488 29.0453 6.32343 29.1431 5.56455 29.1431C4.65527 29.1431 3.83942 29.0243 3.12384 28.7798C2.40803 28.5421 1.68509 28.1368 0.961914 27.5775L2.15758 25.6835C2.7302 26.1517 3.24538 26.4938 3.71104 26.7109C4.16918 26.9276 4.64159 27.0324 5.12852 27.0324C5.72263 27.0324 6.19505 26.8856 6.56044 26.5851C6.92552 26.2846 7.09727 25.8863 7.09727 25.3762C7.09727 25.1596 7.06148 24.957 6.99708 24.7683C6.93265 24.5795 6.81097 24.3839 6.63921 24.1813C6.46738 23.9856 6.22407 23.762 5.91627 23.5314C5.6156 23.3007 5.22196 23.0073 4.73503 22.6647C4.36995 22.4132 4.00494 22.1476 3.65407 21.8818C3.30334 21.6093 2.9884 21.3227 2.69465 21.0151C2.40834 20.7076 2.17931 20.3653 2.00034 19.981C1.82851 19.6037 1.73553 19.1633 1.73553 18.681C1.73553 18.122 1.85722 17.6047 2.09339 17.1433C2.32956 16.6818 2.65887 16.2907 3.07408 15.9625C3.48923 15.6341 3.98337 15.3825 4.56981 15.201C5.14956 15.0193 5.77915 14.9285 6.46662 14.9285C7.18957 14.9285 7.88411 15.0193 8.55638 15.2081C9.22919 15.3967 9.85232 15.6693 10.4319 16.0325L9.35096 17.7377C8.61374 17.2345 7.83321 16.9762 7.01736 16.9762C6.52344 16.9762 6.10807 17.102 5.78599 17.3536C5.4639 17.6051 5.29921 17.9196 5.29921 18.3039C5.29921 18.6673 5.4424 18.9958 5.72871 19.2824C6.01502 19.5759 6.50886 19.9743 7.21076 20.5054C7.91943 21.0086 8.5067 21.4558 8.96477 21.8328C9.43004 22.2101 9.79505 22.5735 10.067 22.9091C10.339 23.2446 10.518 23.58 10.6253 23.9291C10.7327 24.2855 10.7828 24.6628 10.7828 25.0824L10.7831 25.083ZM23.0588 21.8896C23.0588 22.4137 23.0016 22.98 22.8871 23.5874C22.7797 24.1954 22.5864 24.7548 22.3145 25.2718C22.0424 25.789 21.6917 26.2156 21.2548 26.5437C20.8181 26.8791 20.2597 27.0468 19.5942 27.0468C18.4775 27.0468 17.5971 26.6136 16.953 25.7401C16.3087 24.8735 15.9867 23.6787 15.9867 22.1624C15.9867 20.6038 16.3088 19.3742 16.9674 18.4587C17.6188 17.5431 18.5064 17.089 19.6231 17.089C20.6828 17.089 21.5199 17.5223 22.1352 18.375C22.7508 19.2342 23.0589 20.4083 23.0589 21.8898L23.0588 21.8896ZM26.9383 21.7568C26.9383 20.7435 26.788 19.8213 26.4945 18.9968C26.1939 18.165 25.7787 17.4524 25.2275 16.8516C24.6763 16.2507 24.0318 15.7894 23.2805 15.4538C22.5292 15.1183 21.6989 14.9507 20.7897 14.9507C19.7877 14.9507 18.9073 15.1394 18.1484 15.5028C17.3897 15.8732 16.6808 16.4532 16.0366 17.2495L16.0152 15.2717H12.4434V35.5976H16.0083V27.0124C16.3591 27.4107 16.6954 27.7461 17.0247 28.0184C17.3468 28.2909 17.6761 28.5145 18.0123 28.6822C18.3486 28.8499 18.6994 28.9757 19.0712 29.0456C19.4434 29.1155 19.8445 29.1504 20.2669 29.1504C21.2119 29.1504 22.0991 28.9617 22.915 28.5984C23.7308 28.228 24.4396 27.711 25.0336 27.0398C25.6276 26.3687 26.0933 25.5865 26.4298 24.6991C26.7734 23.8043 26.938 22.8191 26.938 21.7569L26.9383 21.7568ZM28.5275 28.822H32.192V8.93311H28.5275V28.822ZM47.8222 28.829V15.2586H44.1578V22.5608C44.1578 23.2107 44.1291 23.7141 44.0718 24.0704C44.0146 24.4268 43.9215 24.7413 43.7927 25.0349C43.2773 26.1527 42.3251 26.7193 40.944 26.7193C39.8631 26.7193 39.1118 26.342 38.6818 25.5801C38.5101 25.2935 38.3955 24.9651 38.3311 24.6016C38.2667 24.2382 38.2309 23.7141 38.2309 23.0223V15.2593H34.5664V22.9704C34.5664 23.4945 34.5736 23.9416 34.5808 24.2978C34.5879 24.6542 34.6166 24.9827 34.6523 25.2623C34.6881 25.5418 34.731 25.7934 34.7812 26.0104C34.8241 26.227 34.8957 26.4367 34.9888 26.6324C35.3252 27.4642 35.8624 28.0931 36.6136 28.519C37.3652 28.9453 38.2886 29.155 39.3764 29.155C40.3571 29.155 41.2231 28.9872 41.9676 28.6518C42.712 28.3164 43.4352 27.771 44.1363 27.0095L44.1435 28.8266L47.8224 28.8336L47.8222 28.829ZM63.6151 28.822V21.1257C63.6151 20.6016 63.608 20.1546 63.6007 19.7842C63.5936 19.4138 63.5722 19.0924 63.5292 18.8198C63.4934 18.5472 63.4433 18.3096 63.3932 18.107C63.3359 17.8973 63.2715 17.6947 63.2 17.499C62.8635 16.6886 62.3264 16.0597 61.5751 15.619C60.8238 15.1782 59.9001 14.9551 58.8047 14.9551C57.824 14.9551 56.958 15.1228 56.2136 15.4582C55.4691 15.7936 54.746 16.3456 54.0448 17.1004L54.0377 15.2834H50.3511V28.8241H54.0445V21.5145C54.0445 20.8855 54.066 20.3893 54.1161 20.0397C54.159 19.6903 54.2521 19.3618 54.3809 19.0471C54.6171 18.502 54.9893 18.0967 55.4832 17.8175C55.977 17.5382 56.5641 17.3982 57.2509 17.3982C58.3318 17.3982 59.0831 17.7756 59.5131 18.5375C59.6777 18.824 59.7922 19.1524 59.8566 19.5086C59.9211 19.865 59.9568 20.396 59.9568 21.0812V28.8071L63.6145 28.8141L63.6151 28.822ZM78.7775 27.9272L73.1949 21.1553L77.9115 16.222L75.1342 15.0553L70.2239 20.6109H69.8374V8.93681H66.1441V28.8257H69.8374V21.6213L75.363 29.0953L78.7768 27.9279L78.7775 27.9272ZM93.051 23.0635V20.8479L81.9451 15.4109V17.8494L90.5518 21.9375L81.9451 26.0813V28.4642L93.051 23.0627V23.0635ZM83.0238 11.8931C82.3439 11.8931 81.7924 12.4381 81.7924 13.1094C81.7924 13.7942 82.3439 14.3324 83.0238 14.3324C83.7113 14.3324 84.2552 13.7943 84.2552 13.1094C84.2552 12.4315 83.7113 11.8931 83.0238 11.8931ZM83.0314 12.0818C83.5822 12.0818 84.0258 12.543 84.0258 13.1158C84.0258 13.6889 83.5822 14.1499 83.0314 14.1433C82.4731 14.1433 82.0287 13.689 82.0287 13.1092C82.0287 12.5431 82.4731 12.0818 83.0314 12.0818ZM82.7952 13.2351H82.9448C83.1241 13.2351 83.2099 13.298 83.2456 13.4727C83.2745 13.6544 83.3102 13.7733 83.3391 13.8152H83.5753C83.5533 13.7733 83.5176 13.6894 83.4895 13.4798C83.4606 13.2771 83.3816 13.1723 83.2532 13.1513V13.1373C83.4036 13.0954 83.5252 12.9836 83.5252 12.8089C83.5252 12.6831 83.4819 12.5853 83.396 12.5293C83.3102 12.4665 83.1742 12.4245 82.9668 12.4245C82.802 12.4245 82.6873 12.4385 82.5734 12.4595V13.815H82.7952V13.235V13.2351ZM82.7952 12.6061C82.8309 12.5992 82.881 12.5922 82.9524 12.5922C83.2031 12.5922 83.2889 12.711 83.2889 12.8298C83.2889 12.9975 83.1309 13.0604 82.9524 13.0604H82.7952V12.6062V12.6061Z" fill="white"/>
</g>
<defs>
<clipPath id="clip0_40_2483">
<rect width="92.2959" height="40" fill="white" transform="translate(0.961914 0.601074)"/>
</clipPath>
</defs>
</svg>
