<svg width="69" height="41" viewBox="0 0 69 41" fill="none" xmlns="http://www.w3.org/2000/svg">
<g clip-path="url(#clip0_40_2476)">
<path fill-rule="evenodd" clip-rule="evenodd" d="M67.7731 22.1167C67.7731 17.4171 65.4386 13.7088 60.9768 13.7088C56.4962 13.7088 53.7853 17.4171 53.7853 22.08C53.7853 27.6057 56.9857 30.3961 61.5793 30.3961C63.8196 30.3961 65.5139 29.9004 66.7941 29.2028V25.5312C65.5139 26.1554 64.0455 26.5409 62.1817 26.5409C60.3556 26.5409 58.7365 25.9168 58.5294 23.7505H67.7354C67.7354 23.5119 67.7731 22.5573 67.7731 22.1167ZM58.473 20.3727C58.473 18.2983 59.772 17.4355 60.958 17.4355C62.1064 17.4355 63.3301 18.2983 63.3301 20.3727H58.473Z" fill="white"/>
<path fill-rule="evenodd" clip-rule="evenodd" d="M46.5183 13.7088C44.6733 13.7088 43.4873 14.5533 42.8283 15.1407L42.5836 14.0025H38.4419V35.4077L43.1484 34.4348L43.1672 29.2395C43.8449 29.7168 44.8427 30.396 46.4994 30.396C49.8693 30.396 52.938 27.7525 52.938 21.9331C52.9191 16.6093 49.8128 13.7088 46.5183 13.7088ZM45.3887 26.3573C44.278 26.3573 43.619 25.9718 43.1672 25.4945L43.1484 18.6838C43.6379 18.1514 44.3156 17.7842 45.3887 17.7842C47.1019 17.7842 48.2879 19.6567 48.2879 22.0616C48.2879 24.5215 47.1207 26.3573 45.3887 26.3573Z" fill="white"/>
<path fill-rule="evenodd" clip-rule="evenodd" d="M31.9656 12.6257L36.6909 11.6343V7.90771L31.9656 8.88068V12.6257Z" fill="white"/>
<path d="M36.6909 14.0209H31.9656V30.0839H36.6909V14.0209Z" fill="white"/>
<path fill-rule="evenodd" clip-rule="evenodd" d="M26.9012 15.3793L26.6 14.0209H22.5335V30.0839H27.24V19.1978C28.3508 17.7842 30.2334 18.0412 30.817 18.2432V14.0209C30.2146 13.8006 28.0119 13.3967 26.9012 15.3793Z" fill="white"/>
<path fill-rule="evenodd" clip-rule="evenodd" d="M17.4883 10.0372L12.8947 10.9918L12.8759 25.6964C12.8759 28.4133 14.9656 30.4143 17.7518 30.4143C19.2956 30.4143 20.4251 30.139 21.0464 29.8085V26.0819C20.444 26.3206 17.4695 27.165 17.4695 24.4481V17.931H21.0464V14.0208H17.4695L17.4883 10.0372Z" fill="white"/>
<path fill-rule="evenodd" clip-rule="evenodd" d="M4.76203 18.6838C4.76203 17.9678 5.36446 17.6925 6.36224 17.6925C7.79303 17.6925 9.60033 18.1147 11.0311 18.8674V14.5533C9.46855 13.9475 7.92481 13.7088 6.36224 13.7088C2.54055 13.7088 -0.000976562 15.6548 -0.000976562 18.9041C-0.000976562 23.9708 7.15294 23.1631 7.15294 25.3477C7.15294 26.1921 6.3999 26.4675 5.34563 26.4675C3.78307 26.4675 1.7875 25.8433 0.20611 24.9989V29.368C1.95694 30.1023 3.72659 30.4144 5.34563 30.4144C9.26146 30.4144 11.9536 28.5236 11.9536 25.2375C11.9348 19.7669 4.76203 20.7399 4.76203 18.6838Z" fill="white"/>
</g>
<defs>
<clipPath id="clip0_40_2476">
<rect width="68.3673" height="40" fill="white" transform="translate(0 0.601074)"/>
</clipPath>
</defs>
</svg>
